<svg xmlns="http://www.w3.org/2000/svg" viewBox="0 0 630.65 254.21"><defs><style>.a,.b{fill:#21ce99;}.b,.c{opacity:0.5;}</style></defs><title>graph</title><circle class="a" cx="2.84" cy="217.29" r="2.84"/><circle class="a" cx="2.84" cy="228.65" r="2.84"/><circle class="a" cx="2.84" cy="240.01" r="2.84"/><circle class="b" cx="2.84" cy="251.37" r="2.84"/><circle class="a" cx="14.2" cy="228.65" r="2.84"/><circle class="a" cx="14.2" cy="240.01" r="2.84"/><circle class="b" cx="14.2" cy="251.37" r="2.84"/><circle class="b" cx="25.56" cy="228.65" r="2.84"/><circle class="a" cx="25.56" cy="240.01" r="2.84"/><circle class="a" cx="25.56" cy="251.37" r="2.84"/><circle class="b" cx="36.92" cy="240.01" r="2.84"/><circle class="a" cx="36.92" cy="251.37" r="2.84"/><circle class="a" cx="48.27" cy="251.37" r="2.84"/><circle class="a" cx="59.63" cy="251.37" r="2.84"/><circle class="b" cx="70.99" cy="251.37" r="2.84"/><circle class="b" cx="82.35" cy="251.37" r="2.84"/><circle class="b" cx="93.71" cy="240.01" r="2.84"/><circle class="a" cx="93.71" cy="251.37" r="2.84"/><circle class="a" cx="105.07" cy="240.01" r="2.84"/><circle class="a" cx="105.07" cy="251.37" r="2.84"/><circle class="a" cx="116.42" cy="228.65" r="2.84"/><circle class="a" cx="116.42" cy="240.01" r="2.84"/><circle class="a" cx="116.42" cy="251.37" r="2.84"/><circle class="a" cx="127.78" cy="217.29" r="2.84"/><circle class="a" cx="127.78" cy="228.65" r="2.84"/><circle class="a" cx="127.78" cy="240.01" r="2.84"/><circle class="a" cx="127.78" cy="251.37" r="2.84"/><circle class="a" cx="139.14" cy="217.29" r="2.84"/><circle class="a" cx="139.14" cy="228.65" r="2.84"/><circle class="a" cx="139.14" cy="240.01" r="2.84"/><circle class="b" cx="139.14" cy="251.37" r="2.84"/><circle class="a" cx="150.5" cy="217.29" r="2.84"/><circle class="a" cx="150.5" cy="228.65" r="2.84"/><circle class="a" cx="150.5" cy="240.01" r="2.84"/><circle class="a" cx="150.5" cy="251.37" r="2.84"/><circle class="b" cx="161.86" cy="217.29" r="2.84"/><circle class="b" cx="161.86" cy="228.65" r="2.84"/><circle class="a" cx="161.86" cy="240.01" r="2.84"/><circle class="a" cx="161.86" cy="251.37" r="2.84"/><circle class="a" cx="173.22" cy="217.29" r="2.84"/><circle class="a" cx="173.22" cy="228.65" r="2.84"/><circle class="a" cx="173.22" cy="240.01" r="2.84"/><circle class="a" cx="173.22" cy="251.37" r="2.84"/><circle class="b" cx="184.58" cy="217.29" r="2.84"/><circle class="a" cx="184.58" cy="228.65" r="2.84"/><circle class="b" cx="184.58" cy="240.01" r="2.84"/><circle class="a" cx="184.58" cy="251.37" r="2.84"/><circle class="b" cx="195.93" cy="217.29" r="2.84"/><circle class="a" cx="195.93" cy="228.65" r="2.84"/><circle class="b" cx="195.93" cy="240.01" r="2.84"/><circle class="a" cx="195.93" cy="251.37" r="2.84"/><circle class="a" cx="207.29" cy="217.29" r="2.84"/><circle class="b" cx="139.14" cy="205.94" r="2.84"/><circle class="a" cx="150.5" cy="205.94" r="2.84"/><circle class="a" cx="161.86" cy="205.94" r="2.84"/><circle class="b" cx="173.22" cy="205.94" r="2.84"/><circle class="b" cx="184.58" cy="205.94" r="2.84"/><circle class="b" cx="195.93" cy="205.94" r="2.84"/><circle class="b" cx="207.29" cy="205.94" r="2.84"/><circle class="a" cx="207.29" cy="228.65" r="2.84"/><circle class="a" cx="207.29" cy="240.01" r="2.84"/><circle class="b" cx="207.29" cy="251.37" r="2.84"/><circle class="a" cx="218.65" cy="217.29" r="2.84"/><circle class="a" cx="218.65" cy="228.65" r="2.84"/><circle class="b" cx="218.65" cy="240.01" r="2.84"/><circle class="a" cx="218.65" cy="251.37" r="2.84"/><circle class="a" cx="218.65" cy="205.94" r="2.84"/><circle class="b" cx="230.01" cy="217.29" r="2.84"/><circle class="a" cx="230.01" cy="228.65" r="2.84"/><circle class="b" cx="230.01" cy="240.01" r="2.84"/><circle class="a" cx="230.01" cy="251.37" r="2.84"/><circle class="a" cx="230.01" cy="194.58" r="2.84"/><circle class="a" cx="230.01" cy="205.94" r="2.84"/><circle class="b" cx="241.37" cy="217.29" r="2.84"/><circle class="a" cx="241.37" cy="228.65" r="2.84"/><circle class="a" cx="241.37" cy="240.01" r="2.84"/><circle class="a" cx="241.37" cy="251.37" r="2.84"/><circle class="a" cx="241.37" cy="183.22" r="2.84"/><circle class="a" cx="241.37" cy="194.58" r="2.84"/><circle class="a" cx="241.37" cy="205.94" r="2.84"/><circle class="b" cx="252.73" cy="217.29" r="2.84"/><circle class="a" cx="252.73" cy="228.65" r="2.84"/><circle class="a" cx="252.73" cy="240.01" r="2.84"/><circle class="a" cx="252.73" cy="251.37" r="2.84"/><circle class="b" cx="252.73" cy="194.58" r="2.84"/><circle class="a" cx="252.73" cy="205.94" r="2.84"/><circle class="b" cx="264.08" cy="217.29" r="2.84"/><circle class="a" cx="264.08" cy="228.65" r="2.84"/><circle class="a" cx="264.08" cy="240.01" r="2.84"/><circle class="a" cx="264.08" cy="251.37" r="2.84"/><circle class="a" cx="264.08" cy="205.94" r="2.84"/><circle class="b" cx="275.44" cy="217.29" r="2.84"/><circle class="b" cx="275.44" cy="228.65" r="2.84"/><circle class="a" cx="275.44" cy="240.01" r="2.84"/><circle class="a" cx="275.44" cy="251.37" r="2.84"/><circle class="a" cx="286.8" cy="228.65" r="2.84"/><circle class="a" cx="286.8" cy="240.01" r="2.84"/><circle class="a" cx="286.8" cy="251.37" r="2.84"/><circle class="a" cx="298.16" cy="217.29" r="2.84"/><circle class="a" cx="298.16" cy="228.65" r="2.84"/><circle class="a" cx="298.16" cy="240.01" r="2.84"/><circle class="a" cx="298.16" cy="251.37" r="2.84"/><circle class="a" cx="309.52" cy="217.29" r="2.84"/><circle class="a" cx="309.52" cy="228.65" r="2.84"/><circle class="a" cx="309.52" cy="240.01" r="2.84"/><circle class="a" cx="309.52" cy="251.37" r="2.84"/><circle class="b" cx="320.88" cy="194.58" r="2.84"/><circle class="a" cx="309.52" cy="205.94" r="2.84"/><circle class="a" cx="320.88" cy="217.29" r="2.84"/><circle class="a" cx="320.88" cy="228.65" r="2.84"/><circle class="a" cx="320.88" cy="240.01" r="2.84"/><circle class="a" cx="320.88" cy="251.37" r="2.84"/><circle class="a" cx="320.88" cy="205.94" r="2.84"/><circle class="a" cx="332.24" cy="217.29" r="2.84"/><circle class="a" cx="332.24" cy="228.65" r="2.84"/><circle class="a" cx="332.24" cy="240.01" r="2.84"/><circle class="a" cx="332.24" cy="251.37" r="2.84"/><circle class="a" cx="332.24" cy="194.58" r="2.84"/><circle class="b" cx="332.24" cy="183.22" r="2.84"/><circle class="a" cx="332.24" cy="205.94" r="2.84"/><circle class="a" cx="343.59" cy="217.29" r="2.84"/><circle class="b" cx="343.59" cy="228.65" r="2.84"/><circle class="a" cx="343.59" cy="240.01" r="2.84"/><circle class="a" cx="343.59" cy="251.37" r="2.84"/><circle class="a" cx="343.59" cy="194.58" r="2.84"/><circle class="a" cx="343.59" cy="205.94" r="2.84"/><circle class="a" cx="354.95" cy="217.29" r="2.84"/><circle class="a" cx="354.95" cy="228.65" r="2.84"/><circle class="a" cx="354.95" cy="240.01" r="2.84"/><circle class="a" cx="354.95" cy="251.37" r="2.84"/><circle class="a" cx="354.95" cy="194.58" r="2.84"/><circle class="a" cx="343.59" cy="183.22" r="2.84"/><circle class="a" cx="354.95" cy="183.22" r="2.84"/><circle class="a" cx="366.31" cy="183.22" r="2.84"/><circle class="a" cx="354.95" cy="205.94" r="2.84"/><circle class="a" cx="366.31" cy="217.29" r="2.84"/><circle class="a" cx="366.31" cy="228.65" r="2.84"/><circle class="a" cx="366.31" cy="240.01" r="2.84"/><circle class="a" cx="366.31" cy="251.37" r="2.84"/><circle class="a" cx="366.31" cy="194.58" r="2.84"/><circle class="a" cx="366.31" cy="205.94" r="2.84"/><circle class="a" cx="377.67" cy="217.29" r="2.84"/><circle class="a" cx="377.67" cy="228.65" r="2.84"/><circle class="a" cx="377.67" cy="240.01" r="2.84"/><circle class="a" cx="377.67" cy="251.37" r="2.84"/><circle class="a" cx="377.67" cy="205.94" r="2.84"/><circle class="a" cx="389.28" cy="217.29" r="2.84"/><circle class="a" cx="389.28" cy="228.65" r="2.84"/><circle class="a" cx="389.28" cy="240.01" r="2.84"/><circle class="a" cx="389.28" cy="251.37" r="2.84"/><circle class="a" cx="389.28" cy="205.94" r="2.84"/><circle class="a" cx="377.67" cy="194.56" r="2.84"/><circle class="b" cx="377.67" cy="183.22" r="2.84"/><circle class="a" cx="389.28" cy="194.56" r="2.84"/><circle class="b" cx="389.28" cy="183.22" r="2.84"/><circle class="b" cx="400.64" cy="217.29" r="2.84"/><circle class="b" cx="400.64" cy="228.65" r="2.84"/><circle class="b" cx="400.64" cy="240.01" r="2.84"/><circle class="b" cx="400.64" cy="251.37" r="2.84"/><circle class="a" cx="400.64" cy="194.58" r="2.84"/><circle class="a" cx="400.64" cy="205.94" r="2.84"/><circle class="a" cx="400.64" cy="171.86" r="2.84"/><circle class="a" cx="400.64" cy="183.22" r="2.84"/><circle class="a" cx="412" cy="217.29" r="2.84"/><circle class="a" cx="412" cy="228.65" r="2.84"/><circle class="a" cx="412" cy="240.01" r="2.84"/><circle class="a" cx="412" cy="251.37" r="2.84"/><circle class="a" cx="412" cy="183.22" r="2.84"/><circle class="a" cx="412" cy="194.58" r="2.84"/><circle class="a" cx="412" cy="205.94" r="2.84"/><circle class="a" cx="423.35" cy="217.29" r="2.84"/><circle class="a" cx="423.35" cy="228.65" r="2.84"/><circle class="a" cx="423.35" cy="240.01" r="2.84"/><circle class="a" cx="423.35" cy="251.37" r="2.84"/><circle class="a" cx="423.35" cy="183.22" r="2.84"/><circle class="a" cx="412" cy="171.86" r="2.84"/><circle class="a" cx="423.35" cy="171.86" r="2.84"/><circle class="a" cx="423.35" cy="194.58" r="2.84"/><circle class="a" cx="423.35" cy="205.94" r="2.84"/><circle class="a" cx="434.71" cy="217.29" r="2.84"/><circle class="a" cx="434.71" cy="228.65" r="2.84"/><circle class="a" cx="434.71" cy="240.01" r="2.84"/><circle class="a" cx="434.71" cy="251.37" r="2.84"/><circle class="a" cx="434.71" cy="171.86" r="2.84"/><circle class="a" cx="434.71" cy="183.22" r="2.84"/><circle class="a" cx="434.71" cy="194.58" r="2.84"/><circle class="a" cx="434.71" cy="205.94" r="2.84"/><circle class="a" cx="446.07" cy="217.29" r="2.84"/><circle class="a" cx="446.07" cy="228.65" r="2.84"/><circle class="a" cx="446.07" cy="240.01" r="2.84"/><circle class="a" cx="446.07" cy="251.37" r="2.84"/><circle class="a" cx="446.07" cy="171.86" r="2.84"/><circle class="a" cx="446.07" cy="183.22" r="2.84"/><circle class="a" cx="446.07" cy="194.58" r="2.84"/><circle class="a" cx="446.07" cy="205.94" r="2.84"/><circle class="a" cx="457.43" cy="217.29" r="2.84"/><circle class="a" cx="457.43" cy="228.65" r="2.84"/><circle class="a" cx="457.43" cy="240.01" r="2.84"/><circle class="a" cx="457.43" cy="251.37" r="2.84"/><circle class="a" cx="457.43" cy="160.5" r="2.84"/><circle class="a" cx="457.43" cy="171.86" r="2.84"/><circle class="b" cx="457.43" cy="183.22" r="2.84"/><circle class="a" cx="457.43" cy="194.58" r="2.84"/><circle class="a" cx="457.43" cy="205.94" r="2.84"/><circle class="a" cx="468.79" cy="217.29" r="2.84"/><circle class="a" cx="468.79" cy="228.65" r="2.84"/><circle class="a" cx="468.79" cy="240.01" r="2.84"/><circle class="b" cx="468.79" cy="251.37" r="2.84"/><circle class="a" cx="468.79" cy="160.5" r="2.84"/><circle class="a" cx="468.79" cy="171.86" r="2.84"/><circle class="a" cx="468.79" cy="183.22" r="2.84"/><circle class="a" cx="468.79" cy="194.58" r="2.84"/><circle class="a" cx="468.79" cy="205.94" r="2.84"/><circle class="a" cx="480.15" cy="217.29" r="2.84"/><circle class="a" cx="480.15" cy="228.65" r="2.84"/><circle class="a" cx="480.15" cy="240.01" r="2.84"/><circle class="a" cx="480.15" cy="251.37" r="2.84"/><circle class="a" cx="480.15" cy="160.5" r="2.84"/><circle class="a" cx="480.15" cy="171.86" r="2.84"/><circle class="a" cx="480.15" cy="183.22" r="2.84"/><circle class="a" cx="480.15" cy="194.58" r="2.84"/><circle class="a" cx="480.15" cy="205.94" r="2.84"/><circle class="b" cx="491.51" cy="217.29" r="2.84"/><circle class="a" cx="491.51" cy="228.65" r="2.84"/><circle class="a" cx="491.51" cy="240.01" r="2.84"/><circle class="a" cx="491.51" cy="251.37" r="2.84"/><circle class="a" cx="491.51" cy="160.5" r="2.84"/><circle class="a" cx="491.51" cy="171.86" r="2.84"/><circle class="a" cx="491.51" cy="183.22" r="2.84"/><circle class="a" cx="491.51" cy="194.58" r="2.84"/><circle class="a" cx="491.51" cy="205.94" r="2.84"/><circle class="b" cx="502.86" cy="217.29" r="2.84"/><circle class="a" cx="502.86" cy="228.65" r="2.84"/><circle class="a" cx="502.86" cy="240.01" r="2.84"/><circle class="a" cx="502.86" cy="251.37" r="2.84"/><circle class="b" cx="502.86" cy="160.5" r="2.84"/><circle class="b" cx="502.86" cy="171.86" r="2.84"/><circle class="a" cx="502.86" cy="183.22" r="2.84"/><circle class="a" cx="502.86" cy="194.58" r="2.84"/><circle class="a" cx="502.86" cy="205.94" r="2.84"/><circle class="b" cx="514.22" cy="217.29" r="2.84"/><circle class="a" cx="514.22" cy="228.65" r="2.84"/><circle class="a" cx="514.22" cy="240.01" r="2.84"/><circle class="a" cx="514.22" cy="251.37" r="2.84"/><circle class="a" cx="514.22" cy="160.5" r="2.84"/><circle class="a" cx="514.22" cy="171.86" r="2.84"/><circle class="a" cx="514.22" cy="183.22" r="2.84"/><circle class="a" cx="514.22" cy="194.58" r="2.84"/><circle class="a" cx="514.22" cy="205.94" r="2.84"/><circle class="b" cx="525.58" cy="217.29" r="2.84"/><circle class="a" cx="525.58" cy="228.65" r="2.84"/><circle class="a" cx="525.58" cy="240.01" r="2.84"/><circle class="a" cx="525.58" cy="251.37" r="2.84"/><circle class="a" cx="525.58" cy="160.5" r="2.84"/><circle class="a" cx="525.58" cy="171.86" r="2.84"/><circle class="a" cx="525.58" cy="183.22" r="2.84"/><circle class="a" cx="525.58" cy="194.58" r="2.84"/><circle class="a" cx="525.58" cy="205.94" r="2.84"/><circle class="b" cx="536.94" cy="217.29" r="2.84"/><circle class="a" cx="536.94" cy="228.65" r="2.84"/><circle class="a" cx="536.94" cy="240.01" r="2.84"/><circle class="a" cx="536.94" cy="251.37" r="2.84"/><circle class="a" cx="536.94" cy="160.5" r="2.84"/><circle class="a" cx="536.94" cy="171.86" r="2.84"/><circle class="a" cx="536.94" cy="183.22" r="2.84"/><circle class="a" cx="536.94" cy="194.58" r="2.84"/><circle class="a" cx="536.94" cy="205.94" r="2.84"/><circle class="b" cx="548.3" cy="217.29" r="2.84"/><circle class="b" cx="548.3" cy="228.65" r="2.84"/><circle class="b" cx="548.3" cy="240.01" r="2.84"/><circle class="b" cx="548.3" cy="251.37" r="2.84"/><circle class="b" cx="548.3" cy="160.5" r="2.84"/><circle class="b" cx="548.3" cy="171.86" r="2.84"/><circle class="b" cx="548.3" cy="183.22" r="2.84"/><circle class="b" cx="548.3" cy="194.58" r="2.84"/><circle class="b" cx="548.3" cy="205.94" r="2.84"/><circle class="b" cx="559.66" cy="217.29" r="2.84"/><circle class="a" cx="559.66" cy="228.65" r="2.84"/><circle class="a" cx="559.66" cy="240.01" r="2.84"/><circle class="a" cx="559.66" cy="251.37" r="2.84"/><circle class="a" cx="559.66" cy="160.5" r="2.84"/><circle class="a" cx="559.66" cy="171.86" r="2.84"/><circle class="a" cx="559.66" cy="183.22" r="2.84"/><circle class="a" cx="559.66" cy="194.58" r="2.84"/><circle class="a" cx="559.66" cy="205.94" r="2.84"/><circle class="b" cx="571.02" cy="217.29" r="2.84"/><circle class="a" cx="571.02" cy="228.65" r="2.84"/><circle class="a" cx="571.02" cy="240.01" r="2.84"/><circle class="a" cx="571.02" cy="251.37" r="2.84"/><circle class="a" cx="571.02" cy="160.5" r="2.84"/><circle class="a" cx="571.02" cy="171.86" r="2.84"/><circle class="a" cx="571.02" cy="183.22" r="2.84"/><circle class="a" cx="571.02" cy="194.58" r="2.84"/><circle class="a" cx="571.02" cy="205.94" r="2.84"/><circle class="b" cx="582.37" cy="217.29" r="2.84"/><circle class="a" cx="582.37" cy="228.65" r="2.84"/><circle class="a" cx="582.37" cy="240.01" r="2.84"/><circle class="a" cx="582.37" cy="251.37" r="2.84"/><circle class="b" cx="582.37" cy="160.5" r="2.84"/><circle class="b" cx="582.37" cy="171.86" r="2.84"/><circle class="b" cx="582.37" cy="183.22" r="2.84"/><circle class="a" cx="582.37" cy="194.58" r="2.84"/><circle class="a" cx="582.37" cy="205.94" r="2.84"/><circle class="b" cx="593.73" cy="217.29" r="2.84"/><circle class="a" cx="593.73" cy="228.65" r="2.84"/><circle class="a" cx="593.73" cy="240.01" r="2.84"/><circle class="a" cx="593.73" cy="251.37" r="2.84"/><circle class="a" cx="593.73" cy="160.5" r="2.84"/><circle class="a" cx="593.73" cy="171.86" r="2.84"/><circle class="a" cx="593.73" cy="183.22" r="2.84"/><circle class="a" cx="593.73" cy="194.58" r="2.84"/><circle class="a" cx="593.73" cy="205.94" r="2.84"/><circle class="b" cx="605.09" cy="217.29" r="2.84"/><circle class="a" cx="605.09" cy="228.65" r="2.84"/><circle class="a" cx="605.09" cy="240.01" r="2.84"/><circle class="a" cx="605.09" cy="251.37" r="2.84"/><circle class="a" cx="605.09" cy="160.5" r="2.84"/><circle class="a" cx="605.09" cy="171.86" r="2.84"/><circle class="a" cx="605.09" cy="183.22" r="2.84"/><circle class="a" cx="605.09" cy="194.58" r="2.84"/><circle class="a" cx="605.09" cy="205.94" r="2.84"/><circle class="b" cx="616.45" cy="217.29" r="2.84"/><circle class="a" cx="616.45" cy="228.65" r="2.84"/><circle class="a" cx="616.45" cy="240.01" r="2.84"/><circle class="a" cx="616.45" cy="251.37" r="2.84"/><circle class="a" cx="616.45" cy="160.5" r="2.84"/><circle class="a" cx="616.45" cy="171.86" r="2.84"/><circle class="a" cx="616.45" cy="183.22" r="2.84"/><circle class="a" cx="616.45" cy="194.58" r="2.84"/><circle class="a" cx="616.45" cy="205.94" r="2.84"/><circle class="b" cx="627.81" cy="217.29" r="2.84"/><circle class="a" cx="627.81" cy="228.65" r="2.84"/><circle class="b" cx="627.81" cy="240.01" r="2.84"/><circle class="a" cx="627.81" cy="251.37" r="2.84"/><circle class="a" cx="627.81" cy="160.5" r="2.84"/><circle class="b" cx="627.81" cy="171.86" r="2.84"/><circle class="a" cx="627.81" cy="183.22" r="2.84"/><circle class="a" cx="627.81" cy="194.58" r="2.84"/><circle class="a" cx="627.81" cy="205.94" r="2.84"/><circle class="a" cx="446.07" cy="160.5" r="2.84"/><circle class="a" cx="446.07" cy="149.57" r="2.84"/><g class="c"><circle class="a" cx="446.07" cy="137.81" r="2.84"/><circle class="a" cx="446.07" cy="126.88" r="2.84"/></g><circle class="b" cx="457.43" cy="138.21" r="2.84"/><circle class="a" cx="457.43" cy="149.57" r="2.84"/><circle class="a" cx="468.79" cy="126.85" r="2.84"/><circle class="a" cx="457.43" cy="126.85" r="2.84"/><circle class="b" cx="468.79" cy="138.21" r="2.84"/><circle class="a" cx="468.79" cy="149.57" r="2.84"/><circle class="a" cx="480.15" cy="126.85" r="2.84"/><circle class="a" cx="480.15" cy="138.21" r="2.84"/><circle class="a" cx="480.15" cy="149.57" r="2.84"/><circle class="a" cx="491.51" cy="126.85" r="2.84"/><circle class="a" cx="491.51" cy="138.21" r="2.84"/><circle class="a" cx="491.51" cy="149.57" r="2.84"/><circle class="b" cx="502.86" cy="126.85" r="2.84"/><circle class="b" cx="502.86" cy="138.21" r="2.84"/><circle class="b" cx="502.86" cy="149.57" r="2.84"/><circle class="a" cx="514.22" cy="115.5" r="2.84"/><circle class="a" cx="514.22" cy="126.85" r="2.84"/><circle class="a" cx="514.22" cy="138.21" r="2.84"/><circle class="a" cx="514.22" cy="149.57" r="2.84"/><circle class="a" cx="525.58" cy="115.5" r="2.84"/><circle class="a" cx="525.58" cy="126.85" r="2.84"/><circle class="a" cx="525.58" cy="138.21" r="2.84"/><circle class="a" cx="525.58" cy="149.57" r="2.84"/><circle class="b" cx="525.58" cy="104.14" r="2.84"/><circle class="b" cx="514.22" cy="104.14" r="2.84"/><circle class="a" cx="536.94" cy="115.5" r="2.84"/><circle class="a" cx="536.94" cy="126.85" r="2.84"/><circle class="a" cx="536.94" cy="138.21" r="2.84"/><circle class="a" cx="536.94" cy="149.57" r="2.84"/><circle class="a" cx="536.92" cy="104.14" r="2.84"/><circle class="a" cx="491.51" cy="115.5" r="2.84"/><circle class="a" cx="491.51" cy="104.14" r="2.84"/><circle class="a" cx="502.86" cy="115.5" r="2.84"/><circle class="a" cx="502.85" cy="104.14" r="2.84"/><circle class="a" cx="548.3" cy="115.5" r="2.84"/><circle class="a" cx="548.3" cy="126.85" r="2.84"/><circle class="a" cx="548.3" cy="138.21" r="2.84"/><circle class="a" cx="548.3" cy="149.57" r="2.84"/><circle class="a" cx="548.3" cy="92.78" r="2.84"/><circle class="a" cx="536.92" cy="92.78" r="2.84"/><circle class="b" cx="536.92" cy="81.42" r="2.84"/><circle class="a" cx="548.3" cy="104.14" r="2.84"/><circle class="b" cx="559.66" cy="115.5" r="2.84"/><circle class="a" cx="559.66" cy="126.85" r="2.84"/><circle class="a" cx="559.66" cy="138.21" r="2.84"/><circle class="b" cx="559.66" cy="149.57" r="2.84"/><circle class="a" cx="559.66" cy="81.42" r="2.84"/><circle class="a" cx="559.66" cy="92.78" r="2.84"/><circle class="a" cx="559.66" cy="104.14" r="2.84"/><circle class="b" cx="571.02" cy="115.5" r="2.84"/><circle class="a" cx="571.02" cy="126.85" r="2.84"/><circle class="a" cx="571.02" cy="138.21" r="2.84"/><circle class="b" cx="571.02" cy="149.57" r="2.84"/><circle class="a" cx="571.02" cy="81.42" r="2.84"/><circle class="a" cx="571.02" cy="92.78" r="2.84"/><circle class="a" cx="571.02" cy="104.14" r="2.84"/><circle class="b" cx="582.37" cy="115.5" r="2.84"/><circle class="b" cx="582.37" cy="126.85" r="2.84"/><circle class="b" cx="582.37" cy="138.21" r="2.84"/><circle class="b" cx="582.37" cy="149.57" r="2.84"/><circle class="b" cx="582.37" cy="81.42" r="2.84"/><circle class="b" cx="582.37" cy="92.78" r="2.84"/><circle class="b" cx="582.37" cy="104.14" r="2.84"/><circle class="b" cx="593.73" cy="115.5" r="2.84"/><circle class="a" cx="593.73" cy="126.85" r="2.84"/><circle class="a" cx="593.73" cy="138.21" r="2.84"/><circle class="b" cx="593.73" cy="149.57" r="2.84"/><circle class="a" cx="593.73" cy="81.42" r="2.84"/><circle class="a" cx="593.73" cy="92.78" r="2.84"/><circle class="a" cx="593.73" cy="104.14" r="2.84"/><circle class="b" cx="605.09" cy="115.5" r="2.84"/><circle class="a" cx="605.09" cy="126.85" r="2.84"/><circle class="a" cx="605.09" cy="138.21" r="2.84"/><circle class="b" cx="605.09" cy="149.57" r="2.84"/><circle class="a" cx="605.09" cy="81.42" r="2.84"/><circle class="a" cx="605.09" cy="92.78" r="2.84"/><circle class="a" cx="605.09" cy="104.14" r="2.84"/><circle class="b" cx="616.45" cy="115.5" r="2.84"/><circle class="a" cx="616.45" cy="126.85" r="2.84"/><circle class="a" cx="616.45" cy="138.21" r="2.84"/><circle class="b" cx="616.45" cy="149.57" r="2.84"/><circle class="a" cx="616.45" cy="81.42" r="2.84"/><circle class="b" cx="616.45" cy="92.78" r="2.84"/><circle class="a" cx="616.45" cy="104.14" r="2.84"/><circle class="b" cx="627.81" cy="115.5" r="2.84"/><circle class="a" cx="627.81" cy="126.85" r="2.84"/><circle class="a" cx="627.81" cy="138.21" r="2.84"/><circle class="b" cx="627.81" cy="149.57" r="2.84"/><circle class="a" cx="627.81" cy="81.42" r="2.84"/><circle class="b" cx="627.81" cy="92.78" r="2.84"/><circle class="a" cx="559.66" cy="70.05" r="2.84"/><circle class="a" cx="571.02" cy="58.69" r="2.84"/><circle class="a" cx="571.02" cy="70.05" r="2.84"/><circle class="a" cx="582.37" cy="58.69" r="2.84"/><circle class="a" cx="582.37" cy="70.05" r="2.84"/><circle class="b" cx="593.73" cy="58.69" r="2.84"/><circle class="a" cx="593.73" cy="70.05" r="2.84"/><circle class="a" cx="605.09" cy="58.69" r="2.84"/><circle class="a" cx="605.09" cy="70.05" r="2.84"/><circle class="a" cx="616.45" cy="58.69" r="2.84"/><circle class="a" cx="616.45" cy="70.05" r="2.84"/><circle class="a" cx="627.81" cy="58.69" r="2.84"/><circle class="b" cx="627.81" cy="70.05" r="2.84"/><circle class="a" cx="627.81" cy="104.14" r="2.84"/><circle class="a" cx="582.37" cy="47.8" r="2.84"/><circle class="b" cx="593.73" cy="36.44" r="2.84"/><circle class="b" cx="593.73" cy="47.8" r="2.84"/><circle class="a" cx="605.09" cy="25.08" r="2.84"/><circle class="a" cx="605.09" cy="36.44" r="2.84"/><circle class="a" cx="605.09" cy="47.8" r="2.84"/><circle class="a" cx="616.45" cy="25.08" r="2.84"/><circle class="a" cx="616.45" cy="36.44" r="2.84"/><circle class="a" cx="616.45" cy="47.8" r="2.84"/><circle class="a" cx="627.81" cy="25.08" r="2.84"/><circle class="a" cx="627.81" cy="14.21" r="2.84"/><circle class="a" cx="627.81" cy="2.84" r="2.84"/><circle class="a" cx="627.81" cy="36.44" r="2.84"/><circle class="a" cx="548.28" cy="81.42" r="2.84"/><circle class="a" cx="514.22" cy="92.78" r="2.84"/><circle class="a" cx="502.86" cy="92.78" r="2.84"/><circle class="a" cx="525.58" cy="92.78" r="2.84"/><circle class="a" cx="502.86" cy="81.42" r="2.84"/><circle class="a" cx="514.22" cy="81.42" r="2.84"/><circle class="a" cx="525.58" cy="81.42" r="2.84"/><circle class="a" cx="491.51" cy="92.78" r="2.84"/><circle class="a" cx="491.51" cy="81.42" r="2.84"/><circle class="b" cx="616.45" cy="14.21" r="2.84"/><circle class="a" cx="627.81" cy="47.8" r="2.84"/><circle class="a" cx="412" cy="160.96" r="2.84"/><circle class="b" cx="412" cy="138.24" r="2.84"/><circle class="a" cx="412" cy="149.6" r="2.84"/><circle class="a" cx="423.35" cy="160.96" r="2.84"/><circle class="b" cx="423.35" cy="138.24" r="2.84"/><circle class="a" cx="423.35" cy="149.6" r="2.84"/><circle class="b" cx="434.71" cy="160.96" r="2.84"/><circle class="b" cx="434.71" cy="138.24" r="2.84"/><circle class="a" cx="434.71" cy="149.6" r="2.84"/><circle class="b" cx="457.43" cy="115.5" r="2.84"/><circle class="a" cx="468.79" cy="115.5" r="2.84"/><circle class="a" cx="468.79" cy="104.14" r="2.84"/><circle class="a" cx="480.15" cy="115.5" r="2.84"/><circle class="b" cx="480.15" cy="92.78" r="2.84"/><circle class="a" cx="480.15" cy="104.14" r="2.84"/><circle class="a" cx="366.56" cy="172.3" r="2.84"/><circle class="a" cx="377.92" cy="172.3" r="2.84"/><circle class="a" cx="377.92" cy="160.94" r="2.84"/><circle class="a" cx="366.56" cy="160.94" r="2.84"/><circle class="b" cx="389.28" cy="172.3" r="2.84"/><circle class="a" cx="389.26" cy="160.94" r="2.84"/><circle class="a" cx="343.85" cy="172.3" r="2.84"/><circle class="a" cx="355.2" cy="172.3" r="2.84"/><circle class="a" cx="355.19" cy="160.94" r="2.84"/><circle class="a" cx="400.64" cy="149.59" r="2.84"/><circle class="a" cx="389.26" cy="149.59" r="2.84"/><circle class="a" cx="400.64" cy="160.94" r="2.84"/><circle class="b" cx="389.26" cy="138.23" r="2.84"/><circle class="a" cx="400.62" cy="138.23" r="2.84"/><circle class="b" cx="366.56" cy="149.59" r="2.84"/><circle class="a" cx="377.92" cy="138.23" r="2.84"/><circle class="a" cx="377.92" cy="149.59" r="2.84"/></svg>